<svg xmlns="http://www.w3.org/2000/svg" width="32" height="32" viewBox="0 0 24 24" fill="none" stroke="#00eaff" stroke-width="2" stroke-linecap="round" stroke-linejoin="round"><line x1="6" x2="10" y1="11" y2="11"/><line x1="8" x2="8" y1="9" y2="13"/><line x1="15" x2="15.01" y1="12" y2="12"/><line x1="18" x2="18.01" y1="10" y2="10"/><path d="M17.32 5H6.68a4 4 0 0 0-3.978 3.59c-.006.052-.01.101-.017.152C2.33 11.05 1 14.15 1 17a4 4 0 0 0 4 4c2.2 0 4-2 6-2h2c2 0 3.8 2 6 2a4 4 0 0 0 4-4c0-2.85-1.33-5.95-1.685-8.258-.007-.05-.011-.1-.017-.152A4 4 0 0 0 17.32 5z"/></svg>
